<svg width="693" height="768" viewBox="0 0 693 768" fill="none" xmlns="http://www.w3.org/2000/svg">
<rect x="149.562" y="150" width="74.2857" height="600" fill="#00FFFF" fill-opacity="0.9"/>
<rect x="150.062" y="150.5" width="73.2857" height="599" stroke="#00FFFF" stroke-opacity="0.9"/>
<path d="M599 321C599 429.474 511.965 517 405.105 517C298.244 517 211.209 429.474 211.209 321C211.209 212.526 298.244 125 405.105 125C511.965 125 599 212.526 599 321Z" stroke="#00FFFF" stroke-opacity="0.9" stroke-width="50"/>
<rect width="594.957" height="74.9168" transform="matrix(0.938632 -0.344919 0.339139 0.940736 0 205.212)" fill="#00FFFF" fill-opacity="0.9"/>
<rect x="214" y="168" width="75" height="600" fill="#FF0000" fill-opacity="0.9"/>
<rect x="214.5" y="168.5" width="74" height="599" stroke="#FF0000" stroke-opacity="0.9"/>
<circle cx="472" cy="339" r="196" stroke="#FF0000" stroke-opacity="0.9" stroke-width="50"/>
<rect x="63" y="223.212" width="600" height="75" transform="rotate(-20 63 223.212)" fill="#FF0000" fill-opacity="0.9"/>
<rect x="176.5" y="150.5" width="74" height="599" fill="white" stroke="white"/>
<circle cx="434" cy="321" r="196" stroke="white" stroke-width="50"/>
<rect x="25" y="205.212" width="600" height="75" transform="rotate(-20 25 205.212)" fill="white"/>
</svg>
